<svg width="619" height="784" viewBox="0 0 619 784" fill="none" xmlns="http://www.w3.org/2000/svg">
<rect width="619" height="784" rx="15" fill="#8BD8FE"/>
<path d="M62.8764 111V84.8182H66.8267V107.599H78.6903V111H62.8764ZM91.1612 111.396C89.3203 111.396 87.7138 110.974 86.3416 110.131C84.9695 109.287 83.9041 108.107 83.1456 106.589C82.3871 105.072 82.0078 103.3 82.0078 101.271C82.0078 99.2344 82.3871 97.4531 83.1456 95.9276C83.9041 94.402 84.9695 93.2173 86.3416 92.3736C87.7138 91.5298 89.3203 91.108 91.1612 91.108C93.0021 91.108 94.6087 91.5298 95.9808 92.3736C97.353 93.2173 98.4183 94.402 99.1768 95.9276C99.9354 97.4531 100.315 99.2344 100.315 101.271C100.315 103.3 99.9354 105.072 99.1768 106.589C98.4183 108.107 97.353 109.287 95.9808 110.131C94.6087 110.974 93.0021 111.396 91.1612 111.396ZM91.174 108.188C92.3672 108.188 93.3558 107.872 94.1399 107.241C94.924 106.611 95.5036 105.771 95.8786 104.723C96.2621 103.675 96.4538 102.52 96.4538 101.259C96.4538 100.006 96.2621 98.8551 95.8786 97.8068C95.5036 96.75 94.924 95.902 94.1399 95.2628C93.3558 94.6236 92.3672 94.304 91.174 94.304C89.9723 94.304 88.9751 94.6236 88.1825 95.2628C87.3984 95.902 86.8146 96.75 86.4311 97.8068C86.0561 98.8551 85.8686 100.006 85.8686 101.259C85.8686 102.52 86.0561 103.675 86.4311 104.723C86.8146 105.771 87.3984 106.611 88.1825 107.241C88.9751 107.872 89.9723 108.188 91.174 108.188ZM104.581 111V91.3636H108.276V94.483H108.48C108.838 93.4261 109.469 92.5952 110.373 91.9901C111.284 91.3764 112.316 91.0696 113.466 91.0696C113.705 91.0696 113.986 91.0781 114.31 91.0952C114.642 91.1122 114.902 91.1335 115.09 91.1591V94.8153C114.936 94.7727 114.664 94.7259 114.272 94.6747C113.88 94.6151 113.488 94.5852 113.096 94.5852C112.192 94.5852 111.387 94.777 110.679 95.1605C109.98 95.5355 109.426 96.0597 109.017 96.733C108.608 97.3977 108.404 98.1562 108.404 99.0085V111H104.581ZM126.158 111.396C124.223 111.396 122.557 110.983 121.159 110.156C119.77 109.321 118.696 108.149 117.938 106.641C117.188 105.124 116.812 103.347 116.812 101.31C116.812 99.2983 117.188 97.5256 117.938 95.9915C118.696 94.4574 119.753 93.2599 121.108 92.3991C122.472 91.5384 124.065 91.108 125.889 91.108C126.997 91.108 128.071 91.2912 129.111 91.6577C130.151 92.0241 131.084 92.5994 131.911 93.3835C132.737 94.1676 133.389 95.1861 133.866 96.4389C134.344 97.6832 134.582 99.196 134.582 100.977V102.332H118.973V99.4688H130.837C130.837 98.4631 130.632 97.5724 130.223 96.7969C129.814 96.0128 129.239 95.3949 128.497 94.9432C127.764 94.4915 126.903 94.2656 125.915 94.2656C124.841 94.2656 123.903 94.5298 123.102 95.0582C122.31 95.5781 121.696 96.2599 121.261 97.1037C120.835 97.9389 120.622 98.8466 120.622 99.8267V102.064C120.622 103.376 120.852 104.493 121.312 105.413C121.781 106.334 122.433 107.037 123.268 107.523C124.104 108 125.08 108.239 126.196 108.239C126.92 108.239 127.581 108.136 128.178 107.932C128.774 107.719 129.29 107.403 129.724 106.986C130.159 106.568 130.491 106.053 130.722 105.439L134.339 106.091C134.05 107.156 133.53 108.089 132.78 108.891C132.038 109.683 131.105 110.301 129.98 110.744C128.864 111.179 127.589 111.396 126.158 111.396ZM138.824 111V91.3636H142.493V94.5597H142.735C143.145 93.4773 143.814 92.6335 144.743 92.0284C145.672 91.4148 146.784 91.108 148.079 91.108C149.392 91.108 150.491 91.4148 151.377 92.0284C152.272 92.642 152.933 93.4858 153.359 94.5597H153.564C154.032 93.5114 154.778 92.6761 155.801 92.054C156.824 91.4233 158.042 91.108 159.457 91.108C161.238 91.108 162.691 91.6662 163.816 92.7827C164.95 93.8991 165.517 95.5824 165.517 97.8324V111H161.694V98.1903C161.694 96.8608 161.332 95.8977 160.608 95.3011C159.883 94.7045 159.018 94.4062 158.012 94.4062C156.768 94.4062 155.801 94.7898 155.11 95.5568C154.42 96.3153 154.075 97.2912 154.075 98.4844V111H150.265V97.9474C150.265 96.8821 149.933 96.0256 149.268 95.3778C148.603 94.7301 147.738 94.4062 146.673 94.4062C145.949 94.4062 145.279 94.598 144.666 94.9815C144.061 95.3565 143.571 95.8807 143.196 96.554C142.829 97.2273 142.646 98.0071 142.646 98.8935V111H138.824ZM180.167 111V91.3636H183.99V111H180.167ZM182.098 88.3338C181.433 88.3338 180.862 88.1122 180.385 87.669C179.916 87.2173 179.681 86.6804 179.681 86.0582C179.681 85.4276 179.916 84.8906 180.385 84.4474C180.862 83.9957 181.433 83.7699 182.098 83.7699C182.762 83.7699 183.329 83.9957 183.798 84.4474C184.275 84.8906 184.514 85.4276 184.514 86.0582C184.514 86.6804 184.275 87.2173 183.798 87.669C183.329 88.1122 182.762 88.3338 182.098 88.3338ZM189.132 118.364V91.3636H192.865V94.5469H193.185C193.406 94.1378 193.726 93.6648 194.143 93.1278C194.561 92.5909 195.141 92.1222 195.882 91.7216C196.624 91.3125 197.604 91.108 198.822 91.108C200.408 91.108 201.822 91.5085 203.067 92.3097C204.311 93.1108 205.287 94.2656 205.994 95.7741C206.71 97.2827 207.068 99.098 207.068 101.22C207.068 103.342 206.714 105.162 206.007 106.679C205.3 108.187 204.328 109.351 203.092 110.169C201.857 110.979 200.446 111.384 198.861 111.384C197.668 111.384 196.692 111.183 195.933 110.783C195.183 110.382 194.595 109.913 194.169 109.376C193.743 108.839 193.415 108.362 193.185 107.945H192.955V118.364H189.132ZM192.878 101.182C192.878 102.562 193.078 103.773 193.479 104.812C193.879 105.852 194.459 106.666 195.217 107.254C195.976 107.834 196.905 108.124 198.004 108.124C199.146 108.124 200.101 107.821 200.868 107.216C201.635 106.602 202.214 105.771 202.607 104.723C203.007 103.675 203.207 102.494 203.207 101.182C203.207 99.8864 203.011 98.723 202.619 97.6918C202.236 96.6605 201.656 95.8466 200.881 95.25C200.114 94.6534 199.155 94.3551 198.004 94.3551C196.896 94.3551 195.959 94.6406 195.192 95.2116C194.433 95.7827 193.858 96.5795 193.466 97.6023C193.074 98.625 192.878 99.8182 192.878 101.182ZM226.065 96.1577L222.601 96.7713C222.456 96.3281 222.226 95.9062 221.911 95.5057C221.604 95.1051 221.186 94.777 220.658 94.5213C220.129 94.2656 219.469 94.1378 218.676 94.1378C217.594 94.1378 216.69 94.3807 215.966 94.8665C215.241 95.3437 214.879 95.9616 214.879 96.7202C214.879 97.3764 215.122 97.9048 215.608 98.3054C216.094 98.706 216.878 99.0341 217.96 99.2898L221.08 100.006C222.886 100.423 224.233 101.067 225.119 101.936C226.006 102.805 226.449 103.935 226.449 105.324C226.449 106.5 226.108 107.548 225.426 108.469C224.753 109.381 223.811 110.097 222.601 110.616C221.399 111.136 220.006 111.396 218.42 111.396C216.222 111.396 214.428 110.928 213.038 109.99C211.649 109.044 210.797 107.702 210.482 105.963L214.176 105.401C214.406 106.364 214.879 107.092 215.595 107.587C216.311 108.072 217.244 108.315 218.395 108.315C219.648 108.315 220.649 108.055 221.399 107.536C222.149 107.007 222.524 106.364 222.524 105.605C222.524 104.991 222.294 104.476 221.834 104.058C221.382 103.641 220.688 103.325 219.75 103.112L216.426 102.384C214.594 101.966 213.239 101.301 212.361 100.389C211.491 99.4773 211.057 98.3224 211.057 96.9247C211.057 95.7656 211.381 94.7514 212.028 93.8821C212.676 93.0128 213.571 92.3352 214.713 91.8494C215.855 91.3551 217.163 91.108 218.638 91.108C220.76 91.108 222.43 91.5682 223.649 92.4886C224.868 93.4006 225.673 94.6236 226.065 96.1577ZM243.091 102.857V91.3636H246.926V111H243.167V107.599H242.963C242.511 108.648 241.787 109.521 240.789 110.22C239.801 110.911 238.569 111.256 237.095 111.256C235.833 111.256 234.717 110.979 233.745 110.425C232.782 109.862 232.024 109.031 231.47 107.932C230.924 106.832 230.652 105.473 230.652 103.854V91.3636H234.474V103.393C234.474 104.732 234.845 105.797 235.586 106.589C236.328 107.382 237.291 107.778 238.475 107.778C239.191 107.778 239.903 107.599 240.61 107.241C241.326 106.884 241.919 106.342 242.387 105.618C242.865 104.893 243.099 103.973 243.091 102.857ZM252.062 111V91.3636H255.731V94.5597H255.974C256.383 93.4773 257.052 92.6335 257.981 92.0284C258.91 91.4148 260.022 91.108 261.317 91.108C262.63 91.108 263.729 91.4148 264.616 92.0284C265.511 92.642 266.171 93.4858 266.597 94.5597H266.802C267.271 93.5114 268.016 92.6761 269.039 92.054C270.062 91.4233 271.281 91.108 272.695 91.108C274.477 91.108 275.93 91.6662 277.055 92.7827C278.188 93.8991 278.755 95.5824 278.755 97.8324V111H274.933V98.1903C274.933 96.8608 274.57 95.8977 273.846 95.3011C273.121 94.7045 272.256 94.4062 271.251 94.4062C270.006 94.4062 269.039 94.7898 268.349 95.5568C267.658 96.3153 267.313 97.2912 267.313 98.4844V111H263.504V97.9474C263.504 96.8821 263.171 96.0256 262.506 95.3778C261.842 94.7301 260.977 94.4062 259.911 94.4062C259.187 94.4062 258.518 94.598 257.904 94.9815C257.299 95.3565 256.809 95.8807 256.434 96.554C256.067 97.2273 255.884 98.0071 255.884 98.8935V111H252.062ZM300.756 111.384C299.171 111.384 297.756 110.979 296.512 110.169C295.276 109.351 294.305 108.187 293.597 106.679C292.898 105.162 292.549 103.342 292.549 101.22C292.549 99.098 292.903 97.2827 293.61 95.7741C294.326 94.2656 295.306 93.1108 296.55 92.3097C297.795 91.5085 299.205 91.108 300.782 91.108C302.001 91.108 302.981 91.3125 303.722 91.7216C304.472 92.1222 305.052 92.5909 305.461 93.1278C305.879 93.6648 306.202 94.1378 306.433 94.5469H306.663V84.8182H310.485V111H306.752V107.945H306.433C306.202 108.362 305.87 108.839 305.435 109.376C305.009 109.913 304.421 110.382 303.671 110.783C302.921 111.183 301.95 111.384 300.756 111.384ZM301.6 108.124C302.7 108.124 303.629 107.834 304.387 107.254C305.154 106.666 305.734 105.852 306.126 104.812C306.526 103.773 306.727 102.562 306.727 101.182C306.727 99.8182 306.531 98.625 306.138 97.6023C305.746 96.5795 305.171 95.7827 304.413 95.2116C303.654 94.6406 302.717 94.3551 301.6 94.3551C300.45 94.3551 299.491 94.6534 298.724 95.25C297.957 95.8466 297.377 96.6605 296.985 97.6918C296.602 98.723 296.41 99.8864 296.41 101.182C296.41 102.494 296.606 103.675 296.998 104.723C297.39 105.771 297.969 106.602 298.737 107.216C299.512 107.821 300.467 108.124 301.6 108.124ZM324.212 111.396C322.371 111.396 320.765 110.974 319.392 110.131C318.02 109.287 316.955 108.107 316.196 106.589C315.438 105.072 315.059 103.3 315.059 101.271C315.059 99.2344 315.438 97.4531 316.196 95.9276C316.955 94.402 318.02 93.2173 319.392 92.3736C320.765 91.5298 322.371 91.108 324.212 91.108C326.053 91.108 327.659 91.5298 329.032 92.3736C330.404 93.2173 331.469 94.402 332.228 95.9276C332.986 97.4531 333.365 99.2344 333.365 101.271C333.365 103.3 332.986 105.072 332.228 106.589C331.469 108.107 330.404 109.287 329.032 110.131C327.659 110.974 326.053 111.396 324.212 111.396ZM324.225 108.188C325.418 108.188 326.407 107.872 327.191 107.241C327.975 106.611 328.554 105.771 328.929 104.723C329.313 103.675 329.505 102.52 329.505 101.259C329.505 100.006 329.313 98.8551 328.929 97.8068C328.554 96.75 327.975 95.902 327.191 95.2628C326.407 94.6236 325.418 94.304 324.225 94.304C323.023 94.304 322.026 94.6236 321.233 95.2628C320.449 95.902 319.865 96.75 319.482 97.8068C319.107 98.8551 318.919 100.006 318.919 101.259C318.919 102.52 319.107 103.675 319.482 104.723C319.865 105.771 320.449 106.611 321.233 107.241C322.026 107.872 323.023 108.188 324.225 108.188ZM341.455 84.8182V111H337.632V84.8182H341.455ZM354.868 111.396C353.027 111.396 351.421 110.974 350.049 110.131C348.676 109.287 347.611 108.107 346.853 106.589C346.094 105.072 345.715 103.3 345.715 101.271C345.715 99.2344 346.094 97.4531 346.853 95.9276C347.611 94.402 348.676 93.2173 350.049 92.3736C351.421 91.5298 353.027 91.108 354.868 91.108C356.709 91.108 358.316 91.5298 359.688 92.3736C361.06 93.2173 362.125 94.402 362.884 95.9276C363.642 97.4531 364.022 99.2344 364.022 101.271C364.022 103.3 363.642 105.072 362.884 106.589C362.125 108.107 361.06 109.287 359.688 110.131C358.316 110.974 356.709 111.396 354.868 111.396ZM354.881 108.188C356.074 108.188 357.063 107.872 357.847 107.241C358.631 106.611 359.211 105.771 359.586 104.723C359.969 103.675 360.161 102.52 360.161 101.259C360.161 100.006 359.969 98.8551 359.586 97.8068C359.211 96.75 358.631 95.902 357.847 95.2628C357.063 94.6236 356.074 94.304 354.881 94.304C353.679 94.304 352.682 94.6236 351.89 95.2628C351.105 95.902 350.522 96.75 350.138 97.8068C349.763 98.8551 349.576 100.006 349.576 101.259C349.576 102.52 349.763 103.675 350.138 104.723C350.522 105.771 351.105 106.611 351.89 107.241C352.682 107.872 353.679 108.188 354.881 108.188ZM368.288 111V91.3636H371.983V94.483H372.188C372.545 93.4261 373.176 92.5952 374.08 91.9901C374.991 91.3764 376.023 91.0696 377.173 91.0696C377.412 91.0696 377.693 91.0781 378.017 91.0952C378.349 91.1122 378.609 91.1335 378.797 91.1591V94.8153C378.643 94.7727 378.371 94.7259 377.979 94.6747C377.587 94.6151 377.195 94.5852 376.803 94.5852C375.899 94.5852 375.094 94.777 374.386 95.1605C373.688 95.5355 373.134 96.0597 372.724 96.733C372.315 97.3977 372.111 98.1562 372.111 99.0085V111H368.288ZM406.347 96.1577L402.882 96.7713C402.737 96.3281 402.507 95.9062 402.192 95.5057C401.885 95.1051 401.467 94.777 400.939 94.5213C400.411 94.2656 399.75 94.1378 398.957 94.1378C397.875 94.1378 396.972 94.3807 396.247 94.8665C395.523 95.3437 395.161 95.9616 395.161 96.7202C395.161 97.3764 395.403 97.9048 395.889 98.3054C396.375 98.706 397.159 99.0341 398.241 99.2898L401.361 100.006C403.168 100.423 404.514 101.067 405.401 101.936C406.287 102.805 406.73 103.935 406.73 105.324C406.73 106.5 406.389 107.548 405.707 108.469C405.034 109.381 404.092 110.097 402.882 110.616C401.68 111.136 400.287 111.396 398.702 111.396C396.503 111.396 394.709 110.928 393.32 109.99C391.93 109.044 391.078 107.702 390.763 105.963L394.457 105.401C394.688 106.364 395.161 107.092 395.876 107.587C396.592 108.072 397.526 108.315 398.676 108.315C399.929 108.315 400.93 108.055 401.68 107.536C402.43 107.007 402.805 106.364 402.805 105.605C402.805 104.991 402.575 104.476 402.115 104.058C401.663 103.641 400.969 103.325 400.031 103.112L396.707 102.384C394.875 101.966 393.52 101.301 392.642 100.389C391.773 99.4773 391.338 98.3224 391.338 96.9247C391.338 95.7656 391.662 94.7514 392.31 93.8821C392.957 93.0128 393.852 92.3352 394.994 91.8494C396.136 91.3551 397.445 91.108 398.919 91.108C401.041 91.108 402.712 91.5682 403.93 92.4886C405.149 93.4006 405.955 94.6236 406.347 96.1577ZM410.933 111V91.3636H414.755V111H410.933ZM412.863 88.3338C412.199 88.3338 411.627 88.1122 411.15 87.669C410.681 87.2173 410.447 86.6804 410.447 86.0582C410.447 85.4276 410.681 84.8906 411.15 84.4474C411.627 83.9957 412.199 83.7699 412.863 83.7699C413.528 83.7699 414.095 83.9957 414.564 84.4474C415.041 84.8906 415.279 85.4276 415.279 86.0582C415.279 86.6804 415.041 87.2173 414.564 87.669C414.095 88.1122 413.528 88.3338 412.863 88.3338ZM429.064 91.3636V94.4318H418.338V91.3636H429.064ZM421.214 86.6591H425.037V105.234C425.037 105.976 425.148 106.534 425.369 106.909C425.591 107.276 425.876 107.527 426.226 107.663C426.584 107.791 426.972 107.855 427.389 107.855C427.696 107.855 427.964 107.834 428.195 107.791C428.425 107.749 428.604 107.714 428.732 107.689L429.422 110.847C429.2 110.932 428.885 111.017 428.476 111.102C428.067 111.196 427.555 111.247 426.942 111.256C425.936 111.273 424.999 111.094 424.129 110.719C423.26 110.344 422.557 109.764 422.02 108.98C421.483 108.196 421.214 107.212 421.214 106.027V86.6591ZM68.2841 155.435C67.0398 155.435 65.9148 155.205 64.9091 154.744C63.9034 154.276 63.1065 153.598 62.5185 152.712C61.9389 151.825 61.6491 150.739 61.6491 149.452C61.6491 148.344 61.8622 147.432 62.2884 146.716C62.7145 146 63.2898 145.433 64.0142 145.016C64.7386 144.598 65.5483 144.283 66.4432 144.07C67.3381 143.857 68.25 143.695 69.179 143.584C70.3551 143.447 71.3097 143.337 72.0426 143.251C72.7756 143.158 73.3082 143.009 73.6406 142.804C73.973 142.599 74.1392 142.267 74.1392 141.807V141.717C74.1392 140.601 73.8239 139.736 73.1932 139.122C72.571 138.509 71.642 138.202 70.4062 138.202C69.1193 138.202 68.1051 138.487 67.3636 139.058C66.6307 139.621 66.1236 140.247 65.8423 140.938L62.25 140.119C62.6761 138.926 63.2983 137.963 64.1165 137.23C64.9432 136.489 65.8935 135.952 66.9673 135.619C68.0412 135.278 69.1705 135.108 70.3551 135.108C71.1392 135.108 71.9702 135.202 72.848 135.389C73.7344 135.568 74.5611 135.901 75.3281 136.386C76.1037 136.872 76.7386 137.567 77.233 138.47C77.7273 139.365 77.9744 140.528 77.9744 141.96V155H74.2415V152.315H74.0881C73.8409 152.81 73.4702 153.295 72.9759 153.773C72.4815 154.25 71.8466 154.646 71.071 154.962C70.2955 155.277 69.3665 155.435 68.2841 155.435ZM69.1151 152.366C70.1719 152.366 71.0753 152.158 71.8253 151.74C72.5838 151.322 73.1591 150.777 73.5511 150.104C73.9517 149.422 74.152 148.693 74.152 147.918V145.386C74.0156 145.523 73.7514 145.651 73.3594 145.77C72.9759 145.881 72.5369 145.979 72.0426 146.064C71.5483 146.141 71.0668 146.213 70.598 146.281C70.1293 146.341 69.7372 146.392 69.4219 146.435C68.6804 146.528 68.0028 146.686 67.3892 146.908C66.7841 147.129 66.2983 147.449 65.9318 147.866C65.5739 148.276 65.3949 148.821 65.3949 149.503C65.3949 150.449 65.7443 151.165 66.4432 151.651C67.142 152.128 68.0327 152.366 69.1151 152.366ZM83.0657 155V135.364H86.7347V138.56H86.9776C87.3867 137.477 88.0558 136.634 88.9847 136.028C89.9137 135.415 91.0259 135.108 92.3214 135.108C93.6339 135.108 94.7333 135.415 95.6197 136.028C96.5146 136.642 97.1751 137.486 97.6012 138.56H97.8058C98.2745 137.511 99.0202 136.676 100.043 136.054C101.066 135.423 102.284 135.108 103.699 135.108C105.48 135.108 106.934 135.666 108.059 136.783C109.192 137.899 109.759 139.582 109.759 141.832V155H105.936V142.19C105.936 140.861 105.574 139.898 104.85 139.301C104.125 138.705 103.26 138.406 102.255 138.406C101.01 138.406 100.043 138.79 99.3526 139.557C98.6623 140.315 98.3171 141.291 98.3171 142.484V155H94.5075V141.947C94.5075 140.882 94.1751 140.026 93.5103 139.378C92.8455 138.73 91.9805 138.406 90.9151 138.406C90.1907 138.406 89.5217 138.598 88.908 138.982C88.3029 139.357 87.8129 139.881 87.4379 140.554C87.0714 141.227 86.8881 142.007 86.8881 142.893V155H83.0657ZM123.345 155.396C121.411 155.396 119.744 154.983 118.347 154.156C116.957 153.321 115.884 152.149 115.125 150.641C114.375 149.124 114 147.347 114 145.31C114 143.298 114.375 141.526 115.125 139.991C115.884 138.457 116.94 137.26 118.295 136.399C119.659 135.538 121.253 135.108 123.077 135.108C124.185 135.108 125.259 135.291 126.298 135.658C127.338 136.024 128.271 136.599 129.098 137.384C129.925 138.168 130.577 139.186 131.054 140.439C131.531 141.683 131.77 143.196 131.77 144.977V146.332H116.161V143.469H128.024C128.024 142.463 127.82 141.572 127.411 140.797C127.001 140.013 126.426 139.395 125.685 138.943C124.952 138.491 124.091 138.266 123.102 138.266C122.028 138.266 121.091 138.53 120.29 139.058C119.497 139.578 118.884 140.26 118.449 141.104C118.023 141.939 117.81 142.847 117.81 143.827V146.064C117.81 147.376 118.04 148.493 118.5 149.413C118.969 150.334 119.621 151.037 120.456 151.523C121.291 152 122.267 152.239 123.384 152.239C124.108 152.239 124.768 152.136 125.365 151.932C125.962 151.719 126.477 151.403 126.912 150.986C127.347 150.568 127.679 150.053 127.909 149.439L131.527 150.091C131.237 151.156 130.717 152.089 129.967 152.891C129.226 153.683 128.293 154.301 127.168 154.744C126.051 155.179 124.777 155.396 123.345 155.396ZM145.177 135.364V138.432H134.451V135.364H145.177ZM137.328 130.659H141.15V149.234C141.15 149.976 141.261 150.534 141.483 150.909C141.704 151.276 141.99 151.527 142.339 151.663C142.697 151.791 143.085 151.855 143.502 151.855C143.809 151.855 144.078 151.834 144.308 151.791C144.538 151.749 144.717 151.714 144.845 151.689L145.535 154.847C145.314 154.932 144.998 155.017 144.589 155.102C144.18 155.196 143.669 155.247 143.055 155.256C142.049 155.273 141.112 155.094 140.243 154.719C139.373 154.344 138.67 153.764 138.133 152.98C137.596 152.196 137.328 151.212 137.328 150.027V130.659ZM167.204 155.396C165.304 155.396 163.667 154.966 162.295 154.105C160.931 153.236 159.883 152.038 159.15 150.513C158.417 148.987 158.051 147.24 158.051 145.271C158.051 143.277 158.426 141.517 159.176 139.991C159.926 138.457 160.983 137.26 162.346 136.399C163.71 135.538 165.316 135.108 167.166 135.108C168.657 135.108 169.987 135.385 171.154 135.939C172.322 136.484 173.264 137.251 173.98 138.24C174.704 139.229 175.135 140.384 175.271 141.705H171.551C171.346 140.784 170.877 139.991 170.145 139.327C169.42 138.662 168.449 138.33 167.23 138.33C166.164 138.33 165.231 138.611 164.43 139.173C163.637 139.727 163.02 140.52 162.576 141.551C162.133 142.574 161.912 143.784 161.912 145.182C161.912 146.614 162.129 147.849 162.564 148.889C162.998 149.929 163.612 150.734 164.404 151.305C165.206 151.876 166.147 152.162 167.23 152.162C167.954 152.162 168.61 152.03 169.199 151.766C169.795 151.493 170.294 151.105 170.694 150.602C171.103 150.099 171.389 149.494 171.551 148.787H175.271C175.135 150.057 174.721 151.19 174.031 152.188C173.341 153.185 172.416 153.969 171.257 154.54C170.106 155.111 168.755 155.396 167.204 155.396ZM187.63 155.396C185.789 155.396 184.183 154.974 182.81 154.131C181.438 153.287 180.373 152.107 179.614 150.589C178.856 149.072 178.477 147.3 178.477 145.271C178.477 143.234 178.856 141.453 179.614 139.928C180.373 138.402 181.438 137.217 182.81 136.374C184.183 135.53 185.789 135.108 187.63 135.108C189.471 135.108 191.077 135.53 192.45 136.374C193.822 137.217 194.887 138.402 195.646 139.928C196.404 141.453 196.783 143.234 196.783 145.271C196.783 147.3 196.404 149.072 195.646 150.589C194.887 152.107 193.822 153.287 192.45 154.131C191.077 154.974 189.471 155.396 187.63 155.396ZM187.643 152.188C188.836 152.188 189.825 151.872 190.609 151.241C191.393 150.611 191.972 149.771 192.347 148.723C192.731 147.675 192.923 146.52 192.923 145.259C192.923 144.006 192.731 142.855 192.347 141.807C191.972 140.75 191.393 139.902 190.609 139.263C189.825 138.624 188.836 138.304 187.643 138.304C186.441 138.304 185.444 138.624 184.651 139.263C183.867 139.902 183.283 140.75 182.9 141.807C182.525 142.855 182.337 144.006 182.337 145.259C182.337 146.52 182.525 147.675 182.9 148.723C183.283 149.771 183.867 150.611 184.651 151.241C185.444 151.872 186.441 152.188 187.643 152.188ZM204.873 143.341V155H201.05V135.364H204.719V138.56H204.962C205.414 137.52 206.121 136.685 207.084 136.054C208.056 135.423 209.279 135.108 210.753 135.108C212.091 135.108 213.263 135.389 214.269 135.952C215.275 136.506 216.054 137.332 216.608 138.432C217.162 139.531 217.439 140.891 217.439 142.51V155H213.617V142.97C213.617 141.547 213.246 140.435 212.505 139.634C211.763 138.824 210.745 138.419 209.449 138.419C208.563 138.419 207.775 138.611 207.084 138.994C206.402 139.378 205.861 139.94 205.461 140.682C205.069 141.415 204.873 142.301 204.873 143.341ZM237.28 140.158L233.816 140.771C233.671 140.328 233.441 139.906 233.125 139.506C232.819 139.105 232.401 138.777 231.873 138.521C231.344 138.266 230.684 138.138 229.891 138.138C228.809 138.138 227.905 138.381 227.181 138.866C226.456 139.344 226.094 139.962 226.094 140.72C226.094 141.376 226.337 141.905 226.823 142.305C227.309 142.706 228.093 143.034 229.175 143.29L232.294 144.006C234.101 144.423 235.448 145.067 236.334 145.936C237.221 146.805 237.664 147.935 237.664 149.324C237.664 150.5 237.323 151.548 236.641 152.469C235.968 153.381 235.026 154.097 233.816 154.616C232.614 155.136 231.221 155.396 229.635 155.396C227.436 155.396 225.642 154.928 224.253 153.99C222.864 153.044 222.012 151.702 221.696 149.963L225.391 149.401C225.621 150.364 226.094 151.092 226.81 151.587C227.526 152.072 228.459 152.315 229.61 152.315C230.863 152.315 231.864 152.055 232.614 151.536C233.364 151.007 233.739 150.364 233.739 149.605C233.739 148.991 233.509 148.476 233.049 148.058C232.597 147.641 231.902 147.325 230.965 147.112L227.641 146.384C225.809 145.966 224.453 145.301 223.576 144.389C222.706 143.477 222.272 142.322 222.272 140.925C222.272 139.766 222.596 138.751 223.243 137.882C223.891 137.013 224.786 136.335 225.928 135.849C227.07 135.355 228.378 135.108 229.853 135.108C231.975 135.108 233.645 135.568 234.864 136.489C236.083 137.401 236.888 138.624 237.28 140.158ZM250.33 155.396C248.395 155.396 246.729 154.983 245.331 154.156C243.942 153.321 242.868 152.149 242.109 150.641C241.359 149.124 240.984 147.347 240.984 145.31C240.984 143.298 241.359 141.526 242.109 139.991C242.868 138.457 243.925 137.26 245.28 136.399C246.643 135.538 248.237 135.108 250.061 135.108C251.169 135.108 252.243 135.291 253.283 135.658C254.322 136.024 255.256 136.599 256.082 137.384C256.909 138.168 257.561 139.186 258.038 140.439C258.516 141.683 258.754 143.196 258.754 144.977V146.332H243.145V143.469H255.009C255.009 142.463 254.804 141.572 254.395 140.797C253.986 140.013 253.411 139.395 252.669 138.943C251.936 138.491 251.075 138.266 250.087 138.266C249.013 138.266 248.075 138.53 247.274 139.058C246.482 139.578 245.868 140.26 245.433 141.104C245.007 141.939 244.794 142.847 244.794 143.827V146.064C244.794 147.376 245.024 148.493 245.484 149.413C245.953 150.334 246.605 151.037 247.44 151.523C248.276 152 249.251 152.239 250.368 152.239C251.092 152.239 251.753 152.136 252.349 151.932C252.946 151.719 253.462 151.403 253.896 150.986C254.331 150.568 254.663 150.053 254.893 149.439L258.511 150.091C258.222 151.156 257.702 152.089 256.952 152.891C256.21 153.683 255.277 154.301 254.152 154.744C253.036 155.179 251.761 155.396 250.33 155.396ZM271.267 155.396C269.366 155.396 267.73 154.966 266.358 154.105C264.994 153.236 263.946 152.038 263.213 150.513C262.48 148.987 262.113 147.24 262.113 145.271C262.113 143.277 262.488 141.517 263.238 139.991C263.988 138.457 265.045 137.26 266.409 136.399C267.772 135.538 269.379 135.108 271.228 135.108C272.72 135.108 274.049 135.385 275.217 135.939C276.385 136.484 277.326 137.251 278.042 138.24C278.767 139.229 279.197 140.384 279.333 141.705H275.613C275.409 140.784 274.94 139.991 274.207 139.327C273.483 138.662 272.511 138.33 271.292 138.33C270.227 138.33 269.294 138.611 268.493 139.173C267.7 139.727 267.082 140.52 266.639 141.551C266.196 142.574 265.974 143.784 265.974 145.182C265.974 146.614 266.191 147.849 266.626 148.889C267.061 149.929 267.674 150.734 268.467 151.305C269.268 151.876 270.21 152.162 271.292 152.162C272.017 152.162 272.673 152.03 273.261 151.766C273.858 151.493 274.356 151.105 274.757 150.602C275.166 150.099 275.451 149.494 275.613 148.787H279.333C279.197 150.057 278.784 151.19 278.093 152.188C277.403 153.185 276.478 153.969 275.319 154.54C274.169 155.111 272.818 155.396 271.267 155.396ZM292.587 135.364V138.432H281.862V135.364H292.587ZM284.738 130.659H288.56V149.234C288.56 149.976 288.671 150.534 288.893 150.909C289.114 151.276 289.4 151.527 289.749 151.663C290.107 151.791 290.495 151.855 290.913 151.855C291.219 151.855 291.488 151.834 291.718 151.791C291.948 151.749 292.127 151.714 292.255 151.689L292.945 154.847C292.724 154.932 292.408 155.017 291.999 155.102C291.59 155.196 291.079 155.247 290.465 155.256C289.46 155.273 288.522 155.094 287.653 154.719C286.783 154.344 286.08 153.764 285.543 152.98C285.006 152.196 284.738 151.212 284.738 150.027V130.659ZM305.068 155.396C303.133 155.396 301.467 154.983 300.069 154.156C298.68 153.321 297.606 152.149 296.848 150.641C296.098 149.124 295.723 147.347 295.723 145.31C295.723 143.298 296.098 141.526 296.848 139.991C297.606 138.457 298.663 137.26 300.018 136.399C301.382 135.538 302.975 135.108 304.799 135.108C305.907 135.108 306.981 135.291 308.021 135.658C309.061 136.024 309.994 136.599 310.821 137.384C311.647 138.168 312.299 139.186 312.777 140.439C313.254 141.683 313.493 143.196 313.493 144.977V146.332H297.883V143.469H309.747C309.747 142.463 309.542 141.572 309.133 140.797C308.724 140.013 308.149 139.395 307.407 138.943C306.674 138.491 305.814 138.266 304.825 138.266C303.751 138.266 302.814 138.53 302.012 139.058C301.22 139.578 300.606 140.26 300.172 141.104C299.745 141.939 299.532 142.847 299.532 143.827V146.064C299.532 147.376 299.762 148.493 300.223 149.413C300.691 150.334 301.343 151.037 302.179 151.523C303.014 152 303.99 152.239 305.106 152.239C305.831 152.239 306.491 152.136 307.088 151.932C307.684 151.719 308.2 151.403 308.635 150.986C309.069 150.568 309.402 150.053 309.632 149.439L313.25 150.091C312.96 151.156 312.44 152.089 311.69 152.891C310.949 153.683 310.015 154.301 308.89 154.744C307.774 155.179 306.5 155.396 305.068 155.396ZM326.9 135.364V138.432H316.174V135.364H326.9ZM319.05 130.659H322.873V149.234C322.873 149.976 322.984 150.534 323.205 150.909C323.427 151.276 323.712 151.527 324.062 151.663C324.42 151.791 324.808 151.855 325.225 151.855C325.532 151.855 325.8 151.834 326.031 151.791C326.261 151.749 326.44 151.714 326.567 151.689L327.258 154.847C327.036 154.932 326.721 155.017 326.312 155.102C325.903 155.196 325.391 155.247 324.778 155.256C323.772 155.273 322.835 155.094 321.965 154.719C321.096 154.344 320.393 153.764 319.856 152.98C319.319 152.196 319.05 151.212 319.05 150.027V130.659ZM343.567 146.857V135.364H347.402V155H343.644V151.599H343.439C342.988 152.648 342.263 153.521 341.266 154.22C340.277 154.911 339.046 155.256 337.571 155.256C336.31 155.256 335.194 154.979 334.222 154.425C333.259 153.862 332.5 153.031 331.946 151.932C331.401 150.832 331.128 149.473 331.128 147.854V135.364H334.951V147.393C334.951 148.732 335.321 149.797 336.063 150.589C336.804 151.382 337.767 151.778 338.952 151.778C339.668 151.778 340.38 151.599 341.087 151.241C341.803 150.884 342.395 150.342 342.864 149.618C343.341 148.893 343.576 147.973 343.567 146.857ZM352.538 155V135.364H356.233V138.483H356.438C356.795 137.426 357.426 136.595 358.33 135.99C359.241 135.376 360.273 135.07 361.423 135.07C361.662 135.07 361.943 135.078 362.267 135.095C362.599 135.112 362.859 135.134 363.047 135.159V138.815C362.893 138.773 362.621 138.726 362.229 138.675C361.837 138.615 361.445 138.585 361.053 138.585C360.149 138.585 359.344 138.777 358.636 139.161C357.938 139.536 357.384 140.06 356.974 140.733C356.565 141.398 356.361 142.156 356.361 143.009V155H352.538ZM366.623 155.243C365.924 155.243 365.324 154.996 364.821 154.501C364.318 153.999 364.066 153.393 364.066 152.686C364.066 151.987 364.318 151.391 364.821 150.896C365.324 150.393 365.924 150.142 366.623 150.142C367.322 150.142 367.923 150.393 368.426 150.896C368.929 151.391 369.18 151.987 369.18 152.686C369.18 153.155 369.061 153.585 368.822 153.977C368.592 154.361 368.285 154.668 367.902 154.898C367.518 155.128 367.092 155.243 366.623 155.243ZM397.992 135.696C397.856 134.486 397.293 133.548 396.305 132.884C395.316 132.21 394.072 131.874 392.572 131.874C391.498 131.874 390.569 132.044 389.785 132.385C389.001 132.717 388.391 133.178 387.957 133.766C387.531 134.345 387.317 135.006 387.317 135.747C387.317 136.369 387.462 136.906 387.752 137.358C388.05 137.81 388.438 138.189 388.915 138.496C389.401 138.794 389.921 139.045 390.475 139.25C391.029 139.446 391.562 139.608 392.073 139.736L394.63 140.401C395.465 140.605 396.322 140.882 397.2 141.232C398.077 141.581 398.891 142.041 399.641 142.612C400.391 143.183 400.996 143.891 401.457 144.734C401.925 145.578 402.16 146.588 402.16 147.764C402.16 149.247 401.776 150.564 401.009 151.714C400.251 152.865 399.147 153.773 397.698 154.438C396.258 155.102 394.515 155.435 392.469 155.435C390.509 155.435 388.813 155.124 387.381 154.501C385.95 153.879 384.829 152.997 384.019 151.855C383.21 150.705 382.762 149.341 382.677 147.764H386.64C386.717 148.71 387.023 149.499 387.56 150.129C388.106 150.751 388.8 151.216 389.644 151.523C390.496 151.821 391.43 151.97 392.444 151.97C393.56 151.97 394.553 151.795 395.423 151.446C396.3 151.088 396.991 150.594 397.494 149.963C397.996 149.324 398.248 148.578 398.248 147.726C398.248 146.95 398.026 146.315 397.583 145.821C397.148 145.327 396.556 144.918 395.806 144.594C395.065 144.27 394.225 143.984 393.288 143.737L390.194 142.893C388.097 142.322 386.435 141.483 385.208 140.375C383.989 139.267 383.38 137.801 383.38 135.977C383.38 134.469 383.789 133.152 384.607 132.027C385.425 130.902 386.533 130.028 387.931 129.406C389.329 128.776 390.906 128.46 392.661 128.46C394.434 128.46 395.998 128.771 397.353 129.393C398.717 130.016 399.79 130.872 400.575 131.963C401.359 133.045 401.768 134.29 401.802 135.696H397.992ZM415.037 155.396C413.102 155.396 411.436 154.983 410.038 154.156C408.649 153.321 407.575 152.149 406.816 150.641C406.066 149.124 405.691 147.347 405.691 145.31C405.691 143.298 406.066 141.526 406.816 139.991C407.575 138.457 408.632 137.26 409.987 136.399C411.35 135.538 412.944 135.108 414.768 135.108C415.876 135.108 416.95 135.291 417.99 135.658C419.029 136.024 419.963 136.599 420.789 137.384C421.616 138.168 422.268 139.186 422.745 140.439C423.223 141.683 423.461 143.196 423.461 144.977V146.332H407.852V143.469H419.716C419.716 142.463 419.511 141.572 419.102 140.797C418.693 140.013 418.118 139.395 417.376 138.943C416.643 138.491 415.782 138.266 414.794 138.266C413.72 138.266 412.782 138.53 411.981 139.058C411.189 139.578 410.575 140.26 410.14 141.104C409.714 141.939 409.501 142.847 409.501 143.827V146.064C409.501 147.376 409.731 148.493 410.191 149.413C410.66 150.334 411.312 151.037 412.147 151.523C412.983 152 413.958 152.239 415.075 152.239C415.799 152.239 416.46 152.136 417.056 151.932C417.653 151.719 418.169 151.403 418.603 150.986C419.038 150.568 419.37 150.053 419.6 149.439L423.218 150.091C422.929 151.156 422.409 152.089 421.659 152.891C420.917 153.683 419.984 154.301 418.859 154.744C417.743 155.179 416.468 155.396 415.037 155.396ZM435.053 155.384C433.468 155.384 432.053 154.979 430.809 154.169C429.573 153.351 428.602 152.187 427.894 150.679C427.195 149.162 426.846 147.342 426.846 145.22C426.846 143.098 427.2 141.283 427.907 139.774C428.623 138.266 429.603 137.111 430.847 136.31C432.092 135.509 433.502 135.108 435.079 135.108C436.298 135.108 437.278 135.312 438.019 135.722C438.769 136.122 439.349 136.591 439.758 137.128C440.175 137.665 440.499 138.138 440.729 138.547H440.96V128.818H444.782V155H441.049V151.945H440.729C440.499 152.362 440.167 152.839 439.732 153.376C439.306 153.913 438.718 154.382 437.968 154.783C437.218 155.183 436.246 155.384 435.053 155.384ZM435.897 152.124C436.996 152.124 437.925 151.834 438.684 151.254C439.451 150.666 440.031 149.852 440.423 148.812C440.823 147.773 441.023 146.562 441.023 145.182C441.023 143.818 440.827 142.625 440.435 141.602C440.043 140.58 439.468 139.783 438.71 139.212C437.951 138.641 437.013 138.355 435.897 138.355C434.746 138.355 433.788 138.653 433.021 139.25C432.254 139.847 431.674 140.661 431.282 141.692C430.898 142.723 430.707 143.886 430.707 145.182C430.707 146.494 430.903 147.675 431.295 148.723C431.687 149.771 432.266 150.602 433.033 151.216C433.809 151.821 434.763 152.124 435.897 152.124ZM62.5696 199V179.364H66.2386V182.56H66.4815C66.8906 181.477 67.5597 180.634 68.4886 180.028C69.4176 179.415 70.5298 179.108 71.8253 179.108C73.1378 179.108 74.2372 179.415 75.1236 180.028C76.0185 180.642 76.679 181.486 77.1051 182.56H77.3097C77.7784 181.511 78.5241 180.676 79.5469 180.054C80.5696 179.423 81.7884 179.108 83.2031 179.108C84.9844 179.108 86.4375 179.666 87.5625 180.783C88.696 181.899 89.2628 183.582 89.2628 185.832V199H85.4403V186.19C85.4403 184.861 85.0781 183.898 84.3537 183.301C83.6293 182.705 82.7642 182.406 81.7585 182.406C80.5142 182.406 79.5469 182.79 78.8565 183.557C78.1662 184.315 77.821 185.291 77.821 186.484V199H74.0114V185.947C74.0114 184.882 73.679 184.026 73.0142 183.378C72.3494 182.73 71.4844 182.406 70.419 182.406C69.6946 182.406 69.0256 182.598 68.4119 182.982C67.8068 183.357 67.3168 183.881 66.9418 184.554C66.5753 185.227 66.392 186.007 66.392 186.893V199H62.5696ZM94.386 199V179.364H98.2085V199H94.386ZM96.3164 176.334C95.6516 176.334 95.0806 176.112 94.6033 175.669C94.1346 175.217 93.9002 174.68 93.9002 174.058C93.9002 173.428 94.1346 172.891 94.6033 172.447C95.0806 171.996 95.6516 171.77 96.3164 171.77C96.9812 171.77 97.5479 171.996 98.0167 172.447C98.494 172.891 98.7326 173.428 98.7326 174.058C98.7326 174.68 98.494 175.217 98.0167 175.669C97.5479 176.112 96.9812 176.334 96.3164 176.334ZM122.044 179.364V182.432H111.319V179.364H122.044ZM114.195 174.659H118.017V193.234C118.017 193.976 118.128 194.534 118.35 194.909C118.571 195.276 118.857 195.527 119.206 195.663C119.564 195.791 119.952 195.855 120.37 195.855C120.676 195.855 120.945 195.834 121.175 195.791C121.405 195.749 121.584 195.714 121.712 195.689L122.402 198.847C122.181 198.932 121.865 199.017 121.456 199.102C121.047 199.196 120.536 199.247 119.922 199.256C118.917 199.273 117.979 199.094 117.11 198.719C116.24 198.344 115.537 197.764 115 196.98C114.463 196.196 114.195 195.212 114.195 194.027V174.659ZM134.525 199.396C132.59 199.396 130.924 198.983 129.526 198.156C128.137 197.321 127.063 196.149 126.305 194.641C125.555 193.124 125.18 191.347 125.18 189.31C125.18 187.298 125.555 185.526 126.305 183.991C127.063 182.457 128.12 181.26 129.475 180.399C130.839 179.538 132.433 179.108 134.256 179.108C135.364 179.108 136.438 179.291 137.478 179.658C138.518 180.024 139.451 180.599 140.278 181.384C141.104 182.168 141.756 183.186 142.234 184.439C142.711 185.683 142.95 187.196 142.95 188.977V190.332H127.34V187.469H139.204C139.204 186.463 138.999 185.572 138.59 184.797C138.181 184.013 137.606 183.395 136.864 182.943C136.131 182.491 135.271 182.266 134.282 182.266C133.208 182.266 132.271 182.53 131.469 183.058C130.677 183.578 130.063 184.26 129.629 185.104C129.202 185.939 128.989 186.847 128.989 187.827V190.064C128.989 191.376 129.219 192.493 129.68 193.413C130.148 194.334 130.8 195.037 131.636 195.523C132.471 196 133.447 196.239 134.563 196.239C135.288 196.239 135.948 196.136 136.545 195.932C137.141 195.719 137.657 195.403 138.092 194.986C138.526 194.568 138.859 194.053 139.089 193.439L142.707 194.091C142.417 195.156 141.897 196.089 141.147 196.891C140.406 197.683 139.472 198.301 138.347 198.744C137.231 199.179 135.957 199.396 134.525 199.396ZM151.013 172.818V199H147.191V172.818H151.013ZM159.978 172.818V199H156.156V172.818H159.978ZM177.559 190.857V179.364H181.395V199H177.636V195.599H177.431C176.98 196.648 176.255 197.521 175.258 198.22C174.27 198.911 173.038 199.256 171.564 199.256C170.302 199.256 169.186 198.979 168.214 198.425C167.251 197.862 166.493 197.031 165.939 195.932C165.393 194.832 165.12 193.473 165.12 191.854V179.364H168.943V191.393C168.943 192.732 169.314 193.797 170.055 194.589C170.797 195.382 171.76 195.778 172.944 195.778C173.66 195.778 174.372 195.599 175.079 195.241C175.795 194.884 176.387 194.342 176.856 193.618C177.333 192.893 177.568 191.973 177.559 190.857ZM201.245 184.158L197.781 184.771C197.636 184.328 197.406 183.906 197.09 183.506C196.783 183.105 196.366 182.777 195.837 182.521C195.309 182.266 194.648 182.138 193.856 182.138C192.773 182.138 191.87 182.381 191.146 182.866C190.421 183.344 190.059 183.962 190.059 184.72C190.059 185.376 190.302 185.905 190.788 186.305C191.273 186.706 192.058 187.034 193.14 187.29L196.259 188.006C198.066 188.423 199.413 189.067 200.299 189.936C201.185 190.805 201.629 191.935 201.629 193.324C201.629 194.5 201.288 195.548 200.606 196.469C199.933 197.381 198.991 198.097 197.781 198.616C196.579 199.136 195.185 199.396 193.6 199.396C191.401 199.396 189.607 198.928 188.218 197.99C186.829 197.044 185.977 195.702 185.661 193.963L189.356 193.401C189.586 194.364 190.059 195.092 190.775 195.587C191.491 196.072 192.424 196.315 193.575 196.315C194.827 196.315 195.829 196.055 196.579 195.536C197.329 195.007 197.704 194.364 197.704 193.605C197.704 192.991 197.474 192.476 197.013 192.058C196.562 191.641 195.867 191.325 194.93 191.112L191.606 190.384C189.773 189.966 188.418 189.301 187.54 188.389C186.671 187.477 186.237 186.322 186.237 184.925C186.237 183.766 186.56 182.751 187.208 181.882C187.856 181.013 188.751 180.335 189.893 179.849C191.035 179.355 192.343 179.108 193.817 179.108C195.94 179.108 197.61 179.568 198.829 180.489C200.048 181.401 200.853 182.624 201.245 184.158ZM215.359 199V179.364H219.028V182.56H219.271C219.68 181.477 220.349 180.634 221.278 180.028C222.207 179.415 223.319 179.108 224.614 179.108C225.927 179.108 227.026 179.415 227.913 180.028C228.808 180.642 229.468 181.486 229.894 182.56H230.099C230.567 181.511 231.313 180.676 232.336 180.054C233.359 179.423 234.577 179.108 235.992 179.108C237.773 179.108 239.227 179.666 240.352 180.783C241.485 181.899 242.052 183.582 242.052 185.832V199H238.229V186.19C238.229 184.861 237.867 183.898 237.143 183.301C236.418 182.705 235.553 182.406 234.548 182.406C233.303 182.406 232.336 182.79 231.646 183.557C230.955 184.315 230.61 185.291 230.61 186.484V199H226.8V185.947C226.8 184.882 226.468 184.026 225.803 183.378C225.138 182.73 224.273 182.406 223.208 182.406C222.484 182.406 221.815 182.598 221.201 182.982C220.596 183.357 220.106 183.881 219.731 184.554C219.364 185.227 219.181 186.007 219.181 186.893V199H215.359ZM255.446 199.396C253.605 199.396 251.999 198.974 250.627 198.131C249.255 197.287 248.189 196.107 247.431 194.589C246.672 193.072 246.293 191.3 246.293 189.271C246.293 187.234 246.672 185.453 247.431 183.928C248.189 182.402 249.255 181.217 250.627 180.374C251.999 179.53 253.605 179.108 255.446 179.108C257.287 179.108 258.894 179.53 260.266 180.374C261.638 181.217 262.703 182.402 263.462 183.928C264.221 185.453 264.6 187.234 264.6 189.271C264.6 191.3 264.221 193.072 263.462 194.589C262.703 196.107 261.638 197.287 260.266 198.131C258.894 198.974 257.287 199.396 255.446 199.396ZM255.459 196.188C256.652 196.188 257.641 195.872 258.425 195.241C259.209 194.611 259.789 193.771 260.164 192.723C260.547 191.675 260.739 190.52 260.739 189.259C260.739 188.006 260.547 186.855 260.164 185.807C259.789 184.75 259.209 183.902 258.425 183.263C257.641 182.624 256.652 182.304 255.459 182.304C254.257 182.304 253.26 182.624 252.468 183.263C251.684 183.902 251.1 184.75 250.716 185.807C250.341 186.855 250.154 188.006 250.154 189.259C250.154 190.52 250.341 191.675 250.716 192.723C251.1 193.771 251.684 194.611 252.468 195.241C253.26 195.872 254.257 196.188 255.459 196.188ZM268.866 199V179.364H272.561V182.483H272.766C273.124 181.426 273.754 180.595 274.658 179.99C275.57 179.376 276.601 179.07 277.751 179.07C277.99 179.07 278.271 179.078 278.595 179.095C278.928 179.112 279.188 179.134 279.375 179.159V182.815C279.222 182.773 278.949 182.726 278.557 182.675C278.165 182.615 277.773 182.585 277.381 182.585C276.477 182.585 275.672 182.777 274.964 183.161C274.266 183.536 273.712 184.06 273.303 184.733C272.893 185.398 272.689 186.156 272.689 187.009V199H268.866ZM282.99 199V172.818H286.812V182.547H287.042C287.264 182.138 287.583 181.665 288.001 181.128C288.419 180.591 288.998 180.122 289.74 179.722C290.481 179.312 291.461 179.108 292.68 179.108C294.265 179.108 295.68 179.509 296.924 180.31C298.169 181.111 299.145 182.266 299.852 183.774C300.568 185.283 300.926 187.098 300.926 189.22C300.926 191.342 300.572 193.162 299.865 194.679C299.157 196.187 298.186 197.351 296.95 198.169C295.714 198.979 294.304 199.384 292.718 199.384C291.525 199.384 290.549 199.183 289.791 198.783C289.041 198.382 288.453 197.913 288.027 197.376C287.6 196.839 287.272 196.362 287.042 195.945H286.723V199H282.99ZM286.735 189.182C286.735 190.562 286.936 191.773 287.336 192.812C287.737 193.852 288.316 194.666 289.075 195.254C289.833 195.834 290.762 196.124 291.862 196.124C293.004 196.124 293.958 195.821 294.725 195.216C295.493 194.602 296.072 193.771 296.464 192.723C296.865 191.675 297.065 190.494 297.065 189.182C297.065 187.886 296.869 186.723 296.477 185.692C296.093 184.661 295.514 183.847 294.738 183.25C293.971 182.653 293.012 182.355 291.862 182.355C290.754 182.355 289.816 182.641 289.049 183.212C288.291 183.783 287.716 184.58 287.324 185.602C286.931 186.625 286.735 187.818 286.735 189.182ZM305.218 199V179.364H309.04V199H305.218ZM307.148 176.334C306.484 176.334 305.913 176.112 305.435 175.669C304.967 175.217 304.732 174.68 304.732 174.058C304.732 173.428 304.967 172.891 305.435 172.447C305.913 171.996 306.484 171.77 307.148 171.77C307.813 171.77 308.38 171.996 308.849 172.447C309.326 172.891 309.565 173.428 309.565 174.058C309.565 174.68 309.326 175.217 308.849 175.669C308.38 176.112 307.813 176.334 307.148 176.334ZM323.71 206.364V179.364H327.443V182.547H327.763C327.984 182.138 328.304 181.665 328.722 181.128C329.139 180.591 329.719 180.122 330.46 179.722C331.202 179.312 332.182 179.108 333.401 179.108C334.986 179.108 336.401 179.509 337.645 180.31C338.889 181.111 339.865 182.266 340.572 183.774C341.288 185.283 341.646 187.098 341.646 189.22C341.646 191.342 341.293 193.162 340.585 194.679C339.878 196.187 338.906 197.351 337.67 198.169C336.435 198.979 335.024 199.384 333.439 199.384C332.246 199.384 331.27 199.183 330.511 198.783C329.761 198.382 329.173 197.913 328.747 197.376C328.321 196.839 327.993 196.362 327.763 195.945H327.533V206.364H323.71ZM327.456 189.182C327.456 190.562 327.656 191.773 328.057 192.812C328.457 193.852 329.037 194.666 329.795 195.254C330.554 195.834 331.483 196.124 332.582 196.124C333.724 196.124 334.679 195.821 335.446 195.216C336.213 194.602 336.793 193.771 337.185 192.723C337.585 191.675 337.786 190.494 337.786 189.182C337.786 187.886 337.589 186.723 337.197 185.692C336.814 184.661 336.234 183.847 335.459 183.25C334.692 182.653 333.733 182.355 332.582 182.355C331.474 182.355 330.537 182.641 329.77 183.212C329.011 183.783 328.436 184.58 328.044 185.602C327.652 186.625 327.456 187.818 327.456 189.182ZM358.368 190.857V179.364H362.203V199H358.445V195.599H358.24C357.788 196.648 357.064 197.521 356.067 198.22C355.078 198.911 353.847 199.256 352.372 199.256C351.111 199.256 349.994 198.979 349.023 198.425C348.06 197.862 347.301 197.031 346.747 195.932C346.202 194.832 345.929 193.473 345.929 191.854V179.364H349.751V191.393C349.751 192.732 350.122 193.797 350.864 194.589C351.605 195.382 352.568 195.778 353.753 195.778C354.469 195.778 355.18 195.599 355.888 195.241C356.604 194.884 357.196 194.342 357.665 193.618C358.142 192.893 358.376 191.973 358.368 190.857ZM367.339 199V179.364H371.034V182.483H371.238C371.596 181.426 372.227 180.595 373.13 179.99C374.042 179.376 375.074 179.07 376.224 179.07C376.463 179.07 376.744 179.078 377.068 179.095C377.4 179.112 377.66 179.134 377.848 179.159V182.815C377.694 182.773 377.422 182.726 377.029 182.675C376.637 182.615 376.245 182.585 375.853 182.585C374.95 182.585 374.145 182.777 373.437 183.161C372.738 183.536 372.184 184.06 371.775 184.733C371.366 185.398 371.162 186.156 371.162 187.009V199H367.339ZM393.594 190.857V179.364H397.43V199H393.671V195.599H393.467C393.015 196.648 392.29 197.521 391.293 198.22C390.305 198.911 389.073 199.256 387.599 199.256C386.337 199.256 385.221 198.979 384.249 198.425C383.286 197.862 382.528 197.031 381.974 195.932C381.428 194.832 381.156 193.473 381.156 191.854V179.364H384.978V191.393C384.978 192.732 385.349 193.797 386.09 194.589C386.832 195.382 387.795 195.778 388.979 195.778C389.695 195.778 390.407 195.599 391.114 195.241C391.83 194.884 392.423 194.342 392.891 193.618C393.369 192.893 393.603 191.973 393.594 190.857ZM417.28 184.158L413.816 184.771C413.671 184.328 413.441 183.906 413.125 183.506C412.819 183.105 412.401 182.777 411.873 182.521C411.344 182.266 410.684 182.138 409.891 182.138C408.809 182.138 407.905 182.381 407.181 182.866C406.456 183.344 406.094 183.962 406.094 184.72C406.094 185.376 406.337 185.905 406.823 186.305C407.309 186.706 408.093 187.034 409.175 187.29L412.294 188.006C414.101 188.423 415.448 189.067 416.334 189.936C417.221 190.805 417.664 191.935 417.664 193.324C417.664 194.5 417.323 195.548 416.641 196.469C415.968 197.381 415.026 198.097 413.816 198.616C412.614 199.136 411.221 199.396 409.635 199.396C407.436 199.396 405.642 198.928 404.253 197.99C402.864 197.044 402.012 195.702 401.696 193.963L405.391 193.401C405.621 194.364 406.094 195.092 406.81 195.587C407.526 196.072 408.459 196.315 409.61 196.315C410.863 196.315 411.864 196.055 412.614 195.536C413.364 195.007 413.739 194.364 413.739 193.605C413.739 192.991 413.509 192.476 413.049 192.058C412.597 191.641 411.902 191.325 410.965 191.112L407.641 190.384C405.809 189.966 404.453 189.301 403.576 188.389C402.706 187.477 402.272 186.322 402.272 184.925C402.272 183.766 402.596 182.751 403.243 181.882C403.891 181.013 404.786 180.335 405.928 179.849C407.07 179.355 408.378 179.108 409.853 179.108C411.975 179.108 413.645 179.568 414.864 180.489C416.083 181.401 416.888 182.624 417.28 184.158ZM437.108 199.435C435.864 199.435 434.739 199.205 433.733 198.744C432.728 198.276 431.931 197.598 431.343 196.712C430.763 195.825 430.473 194.739 430.473 193.452C430.473 192.344 430.686 191.432 431.113 190.716C431.539 190 432.114 189.433 432.838 189.016C433.563 188.598 434.373 188.283 435.267 188.07C436.162 187.857 437.074 187.695 438.003 187.584C439.179 187.447 440.134 187.337 440.867 187.251C441.6 187.158 442.132 187.009 442.465 186.804C442.797 186.599 442.963 186.267 442.963 185.807V185.717C442.963 184.601 442.648 183.736 442.017 183.122C441.395 182.509 440.466 182.202 439.23 182.202C437.944 182.202 436.929 182.487 436.188 183.058C435.455 183.621 434.948 184.247 434.667 184.938L431.074 184.119C431.5 182.926 432.123 181.963 432.941 181.23C433.767 180.489 434.718 179.952 435.792 179.619C436.865 179.278 437.995 179.108 439.179 179.108C439.963 179.108 440.794 179.202 441.672 179.389C442.559 179.568 443.385 179.901 444.152 180.386C444.928 180.872 445.563 181.567 446.057 182.47C446.551 183.365 446.799 184.528 446.799 185.96V199H443.066V196.315H442.912C442.665 196.81 442.294 197.295 441.8 197.773C441.306 198.25 440.671 198.646 439.895 198.962C439.12 199.277 438.191 199.435 437.108 199.435ZM437.939 196.366C438.996 196.366 439.9 196.158 440.65 195.74C441.408 195.322 441.983 194.777 442.375 194.104C442.776 193.422 442.976 192.693 442.976 191.918V189.386C442.84 189.523 442.576 189.651 442.184 189.77C441.8 189.881 441.361 189.979 440.867 190.064C440.373 190.141 439.891 190.213 439.422 190.281C438.953 190.341 438.561 190.392 438.246 190.435C437.505 190.528 436.827 190.686 436.213 190.908C435.608 191.129 435.123 191.449 434.756 191.866C434.398 192.276 434.219 192.821 434.219 193.503C434.219 194.449 434.569 195.165 435.267 195.651C435.966 196.128 436.857 196.366 437.939 196.366ZM454.408 199.243C453.71 199.243 453.109 198.996 452.606 198.501C452.103 197.999 451.852 197.393 451.852 196.686C451.852 195.987 452.103 195.391 452.606 194.896C453.109 194.393 453.71 194.142 454.408 194.142C455.107 194.142 455.708 194.393 456.211 194.896C456.714 195.391 456.965 195.987 456.965 196.686C456.965 197.155 456.846 197.585 456.607 197.977C456.377 198.361 456.07 198.668 455.687 198.898C455.303 199.128 454.877 199.243 454.408 199.243Z" fill="#0C1F2F"/>
<path d="M60 298V469" stroke="#F4F5F9"/>
<path d="M60 730H130" stroke="#F4F5F9"/>
<path d="M520.125 324H103.832C93.6078 324 85.3193 332.255 85.3193 342.438V630.773C85.3193 640.956 93.6078 649.211 103.832 649.211H520.125C530.349 649.211 538.637 640.956 538.637 630.773V342.438C538.637 332.255 530.349 324 520.125 324Z" fill="#0580BC"/>
<path d="M515.805 324H99.5129C89.2885 324 81 332.255 81 342.438V630.773C81 640.956 89.2885 649.211 99.5129 649.211H515.805C526.03 649.211 534.318 640.956 534.318 630.773V342.438C534.318 332.255 526.03 324 515.805 324Z" fill="white" stroke="#0580BC" stroke-width="0.75" stroke-miterlimit="10"/>
<path d="M103.822 324H520.125C530.337 324 538.637 332.257 538.637 342.438V352.42H85.3193V342.438C85.3193 332.257 93.6095 324 103.822 324Z" fill="#0580BC"/>
<path d="M99.5129 324H515.816C526.028 324 534.329 332.257 534.329 342.438V352.42H81V342.438C81 332.257 89.3007 324 99.5129 324Z" fill="#BEDBE9" stroke="#0580BC" stroke-width="0.75" stroke-miterlimit="10"/>
<path d="M290.108 365.6H105.79C99.6307 365.6 94.6377 370.573 94.6377 376.708V624.364C94.6377 630.498 99.6307 635.471 105.79 635.471H290.108C296.268 635.471 301.261 630.498 301.261 624.364V376.708C301.261 370.573 296.268 365.6 290.108 365.6Z" fill="#BEDBE9"/>
<path d="M103.379 344.689C106.621 344.689 109.25 342.071 109.25 338.841C109.25 335.611 106.621 332.993 103.379 332.993C100.136 332.993 97.5068 335.611 97.5068 338.841C97.5068 342.071 100.136 344.689 103.379 344.689Z" fill="#EFFAFF" stroke="#0580BC" stroke-width="0.75" stroke-miterlimit="10"/>
<path d="M120.994 344.689C124.237 344.689 126.866 342.071 126.866 338.841C126.866 335.611 124.237 332.993 120.994 332.993C117.751 332.993 115.122 335.611 115.122 338.841C115.122 342.071 117.751 344.689 120.994 344.689Z" fill="#EFFAFF" stroke="#0580BC" stroke-width="0.75" stroke-miterlimit="10"/>
<path d="M138.609 344.689C141.852 344.689 144.481 342.071 144.481 338.841C144.481 335.611 141.852 332.993 138.609 332.993C135.366 332.993 132.737 335.611 132.737 338.841C132.737 342.071 135.366 344.689 138.609 344.689Z" fill="#EFFAFF" stroke="#0580BC" stroke-width="0.75" stroke-miterlimit="10"/>
<path d="M252.848 525.6H110.588C100.906 525.6 93.0576 533.449 93.0576 543.13V575.83C93.0576 585.512 100.906 593.36 110.588 593.36H252.848C262.529 593.36 270.378 585.512 270.378 575.83V543.13C270.378 533.449 262.529 525.6 252.848 525.6Z" fill="#0580BC"/>
<path d="M248.428 525.6H106.168C96.4861 525.6 88.6377 533.449 88.6377 543.13V575.83C88.6377 585.512 96.4861 593.36 106.168 593.36H248.428C258.109 593.36 265.958 585.512 265.958 575.83V543.13C265.958 533.449 258.109 525.6 248.428 525.6Z" fill="white" stroke="#0580BC" stroke-width="0.75" stroke-linecap="round" stroke-linejoin="round"/>
<path d="M187.988 543.39H159.728C157.469 543.39 155.638 545.222 155.638 547.48C155.638 549.739 157.469 551.57 159.728 551.57H187.988C190.247 551.57 192.078 549.739 192.078 547.48C192.078 545.222 190.247 543.39 187.988 543.39Z" fill="#0580BC"/>
<path d="M355.988 434.6H327.728C325.469 434.6 323.638 436.431 323.638 438.69C323.638 440.949 325.469 442.78 327.728 442.78H355.988C358.247 442.78 360.078 440.949 360.078 438.69C360.078 436.431 358.247 434.6 355.988 434.6Z" fill="#0580BC"/>
<path d="M355.988 499.6H327.728C325.469 499.6 323.638 501.431 323.638 503.69C323.638 505.949 325.469 507.78 327.728 507.78H355.988C358.247 507.78 360.078 505.949 360.078 503.69C360.078 501.431 358.247 499.6 355.988 499.6Z" fill="#0580BC"/>
<path d="M355.988 434.6H327.728C325.469 434.6 323.638 436.431 323.638 438.69C323.638 440.949 325.469 442.78 327.728 442.78H355.988C358.247 442.78 360.078 440.949 360.078 438.69C360.078 436.431 358.247 434.6 355.988 434.6Z" fill="#0580BC"/>
<path d="M355.988 499.6H327.728C325.469 499.6 323.638 501.431 323.638 503.69C323.638 505.949 325.469 507.78 327.728 507.78H355.988C358.247 507.78 360.078 505.949 360.078 503.69C360.078 501.431 358.247 499.6 355.988 499.6Z" fill="#0580BC"/>
<path d="M381.138 388.6H331.2C327.024 388.6 323.638 391.832 323.638 395.819C323.638 399.806 327.024 403.039 331.2 403.039H381.138C385.314 403.039 388.7 399.806 388.7 395.819C388.7 391.832 385.314 388.6 381.138 388.6Z" fill="#0580BC"/>
<path d="M489.69 565.6H337.586C329.883 565.6 323.638 571.562 323.638 578.915C323.638 586.269 329.883 592.23 337.586 592.23H489.69C497.393 592.23 503.638 586.269 503.638 578.915C503.638 571.562 497.393 565.6 489.69 565.6Z" fill="#0580BC"/>
<path d="M184.638 451.6H120.923C117.452 451.6 114.638 454.287 114.638 457.6C114.638 460.914 117.452 463.6 120.923 463.6H184.638C188.109 463.6 190.923 460.914 190.923 457.6C190.923 454.287 188.109 451.6 184.638 451.6Z" fill="#0580BC"/>
<path d="M410.188 412.6H326.158C324.766 412.6 323.638 413.729 323.638 415.12C323.638 416.512 324.766 417.64 326.158 417.64H410.188C411.579 417.64 412.708 416.512 412.708 415.12C412.708 413.729 411.579 412.6 410.188 412.6Z" fill="#8BD8FE"/>
<path d="M434.188 619.6H370.158C368.766 619.6 367.638 620.729 367.638 622.12C367.638 623.512 368.766 624.64 370.158 624.64H434.188C435.579 624.64 436.708 623.512 436.708 622.12C436.708 620.729 435.579 619.6 434.188 619.6Z" fill="#8BD8FE"/>
<path d="M456.188 619.6H442.158C440.766 619.6 439.638 620.729 439.638 622.12C439.638 623.512 440.766 624.64 442.158 624.64H456.188C457.579 624.64 458.708 623.512 458.708 622.12C458.708 620.729 457.579 619.6 456.188 619.6Z" fill="#8BD8FE"/>
<path d="M242.829 431.6H120.946C117.462 431.6 114.638 434.287 114.638 437.6C114.638 440.914 117.462 443.6 120.946 443.6H242.829C246.313 443.6 249.138 440.914 249.138 437.6C249.138 434.287 246.313 431.6 242.829 431.6Z" fill="#0580BC"/>
<path d="M242.188 558.53H158.158C156.766 558.53 155.638 559.659 155.638 561.05C155.638 562.442 156.766 563.57 158.158 563.57H242.188C243.579 563.57 244.708 562.442 244.708 561.05C244.708 559.659 243.579 558.53 242.188 558.53Z" fill="#8BD8FE"/>
<path d="M492.079 454.6H339.754C332.818 454.6 327.195 460.282 327.195 467.291C327.195 474.3 332.818 479.982 339.754 479.982H492.079C499.015 479.982 504.638 474.3 504.638 467.291C504.638 460.282 499.015 454.6 492.079 454.6Z" fill="#0580BC" stroke="#0580BC" stroke-width="0.75" stroke-miterlimit="10"/>
<path d="M492.079 519.6H339.754C332.818 519.6 327.195 525.282 327.195 532.291C327.195 539.3 332.818 544.982 339.754 544.982H492.079C499.015 544.982 504.638 539.3 504.638 532.291C504.638 525.282 499.015 519.6 492.079 519.6Z" fill="#0580BC" stroke="#0580BC" stroke-width="0.75" stroke-miterlimit="10"/>
<path d="M489.522 454.6H336.196C329.26 454.6 323.638 460.282 323.638 467.291C323.638 474.3 329.26 479.982 336.196 479.982H489.522C496.458 479.982 502.08 474.3 502.08 467.291C502.08 460.282 496.458 454.6 489.522 454.6Z" fill="white" stroke="#0580BC" stroke-width="0.75" stroke-miterlimit="10"/>
<path d="M489.522 519.6H336.196C329.26 519.6 323.638 525.282 323.638 532.291C323.638 539.3 329.26 544.982 336.196 544.982H489.522C496.458 544.982 502.08 539.3 502.08 532.291C502.08 525.282 496.458 519.6 489.522 519.6Z" fill="white" stroke="#0580BC" stroke-width="0.75" stroke-miterlimit="10"/>
<path d="M403.505 463.6H338.77C337.04 463.6 335.638 465.167 335.638 467.1C335.638 469.033 337.04 470.6 338.77 470.6H403.505C405.235 470.6 406.638 469.033 406.638 467.1C406.638 465.167 405.235 463.6 403.505 463.6Z" fill="#8BD8FE"/>
<path d="M423.505 528.6H338.77C337.04 528.6 335.638 530.167 335.638 532.1C335.638 534.033 337.04 535.6 338.77 535.6H423.505C425.235 535.6 426.638 534.033 426.638 532.1C426.638 530.167 425.235 528.6 423.505 528.6Z" fill="#8BD8FE"/>
<path d="M397.078 575.186C397.031 575.266 396.982 575.324 396.931 575.361C396.879 575.399 396.814 575.417 396.735 575.417C396.651 575.417 396.555 575.38 396.448 575.305C396.34 575.226 396.205 575.14 396.042 575.046C395.883 574.948 395.692 574.862 395.468 574.787C395.244 574.708 394.975 574.668 394.663 574.668C394.369 574.668 394.11 574.708 393.886 574.787C393.666 574.862 393.482 574.967 393.333 575.102C393.183 575.233 393.069 575.389 392.99 575.571C392.915 575.749 392.878 575.942 392.878 576.152C392.878 576.423 392.945 576.647 393.081 576.824C393.221 577.002 393.403 577.153 393.627 577.279C393.851 577.405 394.105 577.515 394.39 577.608C394.674 577.702 394.966 577.8 395.265 577.902C395.563 578 395.855 578.115 396.14 578.245C396.424 578.376 396.679 578.542 396.903 578.742C397.127 578.938 397.306 579.181 397.442 579.47C397.582 579.755 397.652 580.105 397.652 580.52C397.652 580.964 397.575 581.379 397.421 581.766C397.271 582.154 397.052 582.492 396.763 582.781C396.473 583.071 396.116 583.299 395.692 583.467C395.272 583.631 394.793 583.712 394.257 583.712C393.935 583.712 393.622 583.68 393.319 583.614C393.015 583.554 392.728 583.467 392.458 583.355C392.187 583.239 391.933 583.101 391.695 582.942C391.461 582.779 391.251 582.597 391.065 582.396L391.492 581.682C391.534 581.626 391.583 581.58 391.639 581.542C391.699 581.505 391.767 581.486 391.842 581.486C391.94 581.486 392.052 581.538 392.178 581.64C392.308 581.743 392.467 581.857 392.654 581.983C392.845 582.105 393.071 582.217 393.333 582.319C393.599 582.422 393.921 582.473 394.299 582.473C394.607 582.473 394.882 582.434 395.125 582.354C395.367 582.27 395.57 582.154 395.734 582.004C395.902 581.85 396.03 581.666 396.119 581.451C396.207 581.237 396.252 580.999 396.252 580.737C396.252 580.443 396.184 580.203 396.049 580.016C395.913 579.83 395.734 579.673 395.51 579.547C395.286 579.421 395.031 579.314 394.747 579.225C394.462 579.137 394.17 579.046 393.872 578.952C393.573 578.854 393.281 578.742 392.997 578.616C392.712 578.49 392.458 578.327 392.234 578.126C392.01 577.921 391.83 577.667 391.695 577.363C391.559 577.055 391.492 576.677 391.492 576.229C391.492 575.87 391.562 575.522 391.702 575.186C391.842 574.85 392.045 574.554 392.311 574.297C392.581 574.036 392.913 573.828 393.305 573.674C393.697 573.516 394.145 573.436 394.649 573.436C395.213 573.436 395.731 573.527 396.203 573.709C396.679 573.887 397.092 574.143 397.442 574.479L397.078 575.186ZM400.585 576.488V583.6H399.22V576.488H400.585ZM400.844 574.29C400.844 574.416 400.819 574.538 400.767 574.654C400.716 574.766 400.646 574.867 400.557 574.955C400.473 575.039 400.373 575.107 400.256 575.158C400.14 575.205 400.018 575.228 399.892 575.228C399.766 575.228 399.647 575.205 399.535 575.158C399.423 575.107 399.323 575.039 399.234 574.955C399.15 574.867 399.083 574.766 399.031 574.654C398.985 574.538 398.961 574.416 398.961 574.29C398.961 574.16 398.985 574.038 399.031 573.926C399.083 573.81 399.15 573.709 399.234 573.625C399.323 573.537 399.423 573.469 399.535 573.422C399.647 573.371 399.766 573.345 399.892 573.345C400.018 573.345 400.14 573.371 400.256 573.422C400.373 573.469 400.473 573.537 400.557 573.625C400.646 573.709 400.716 573.81 400.767 573.926C400.819 574.038 400.844 574.16 400.844 574.29ZM405.061 580.051C405.303 580.051 405.516 580.019 405.698 579.953C405.884 579.888 406.038 579.797 406.16 579.68C406.286 579.559 406.379 579.414 406.44 579.246C406.505 579.078 406.538 578.894 406.538 578.693C406.538 578.283 406.412 577.956 406.16 577.713C405.912 577.466 405.546 577.342 405.061 577.342C404.58 577.342 404.214 577.466 403.962 577.713C403.714 577.956 403.591 578.283 403.591 578.693C403.591 578.894 403.621 579.078 403.682 579.246C403.747 579.41 403.84 579.552 403.962 579.673C404.088 579.79 404.242 579.883 404.424 579.953C404.61 580.019 404.823 580.051 405.061 580.051ZM407.238 583.971C407.238 583.803 407.191 583.67 407.098 583.572C407.004 583.47 406.876 583.39 406.713 583.334C406.554 583.274 406.367 583.232 406.153 583.208C405.938 583.18 405.712 583.159 405.474 583.145C405.24 583.131 405 583.12 404.753 583.11C404.505 583.096 404.267 583.073 404.039 583.04C403.796 583.162 403.595 583.309 403.437 583.481C403.283 583.654 403.206 583.857 403.206 584.09C403.206 584.24 403.243 584.38 403.318 584.51C403.397 584.641 403.516 584.753 403.675 584.846C403.838 584.944 404.041 585.019 404.284 585.07C404.531 585.126 404.825 585.154 405.166 585.154C405.502 585.154 405.798 585.124 406.055 585.063C406.311 585.007 406.526 584.926 406.699 584.818C406.876 584.716 407.009 584.592 407.098 584.447C407.191 584.303 407.238 584.144 407.238 583.971ZM408.624 576.754V577.265C408.624 577.433 408.519 577.538 408.309 577.58L407.546 577.692C407.611 577.837 407.662 577.991 407.7 578.154C407.737 578.313 407.756 578.481 407.756 578.658C407.756 579.008 407.688 579.326 407.553 579.61C407.417 579.89 407.231 580.131 406.993 580.331C406.755 580.532 406.47 580.686 406.139 580.793C405.812 580.901 405.453 580.954 405.061 580.954C404.739 580.954 404.438 580.919 404.158 580.849C404.018 580.933 403.91 581.027 403.836 581.129C403.766 581.227 403.731 581.325 403.731 581.423C403.731 581.587 403.798 581.708 403.934 581.787C404.074 581.867 404.253 581.925 404.473 581.962C404.697 581.995 404.951 582.016 405.236 582.025C405.525 582.035 405.817 582.051 406.111 582.074C406.409 582.093 406.701 582.13 406.986 582.186C407.275 582.238 407.529 582.324 407.749 582.445C407.973 582.562 408.152 582.725 408.288 582.935C408.428 583.141 408.498 583.409 408.498 583.74C408.498 584.048 408.421 584.347 408.267 584.636C408.117 584.926 407.898 585.182 407.609 585.406C407.319 585.63 406.967 585.81 406.552 585.945C406.136 586.081 405.665 586.148 405.138 586.148C404.61 586.148 404.151 586.097 403.759 585.994C403.371 585.892 403.047 585.754 402.786 585.581C402.529 585.409 402.335 585.208 402.205 584.979C402.079 584.751 402.016 584.513 402.016 584.265C402.016 583.92 402.123 583.628 402.338 583.39C402.552 583.148 402.849 582.959 403.227 582.823C403.021 582.73 402.858 582.604 402.737 582.445C402.615 582.282 402.555 582.067 402.555 581.801C402.555 581.699 402.573 581.594 402.611 581.486C402.648 581.374 402.704 581.265 402.779 581.157C402.858 581.045 402.954 580.94 403.066 580.842C403.182 580.744 403.315 580.656 403.465 580.576C403.115 580.38 402.839 580.121 402.639 579.799C402.438 579.473 402.338 579.092 402.338 578.658C402.338 578.308 402.405 577.993 402.541 577.713C402.676 577.433 402.863 577.193 403.101 576.992C403.343 576.792 403.63 576.638 403.962 576.53C404.298 576.423 404.664 576.369 405.061 576.369C405.677 576.369 406.206 576.498 406.65 576.754H408.624ZM411.157 577.475C411.311 577.312 411.472 577.163 411.64 577.027C411.808 576.892 411.985 576.778 412.172 576.684C412.363 576.586 412.566 576.512 412.781 576.46C413 576.404 413.234 576.376 413.481 576.376C413.873 576.376 414.216 576.442 414.51 576.572C414.809 576.703 415.058 576.887 415.259 577.125C415.46 577.359 415.611 577.641 415.714 577.972C415.817 578.304 415.868 578.67 415.868 579.071V583.6H414.496V579.071C414.496 578.563 414.379 578.168 414.146 577.888C413.913 577.604 413.556 577.461 413.075 577.461C412.725 577.461 412.396 577.545 412.088 577.713C411.785 577.877 411.502 578.101 411.241 578.385V583.6H409.876V576.488H410.695C410.886 576.488 411.005 576.579 411.052 576.761L411.157 577.475ZM427.166 576.488V583.6H426.347C426.16 583.6 426.039 583.509 425.983 583.327L425.885 582.613C425.731 582.777 425.57 582.926 425.402 583.061C425.234 583.197 425.054 583.313 424.863 583.411C424.672 583.505 424.469 583.577 424.254 583.628C424.039 583.684 423.808 583.712 423.561 583.712C423.169 583.712 422.824 583.647 422.525 583.516C422.231 583.386 421.984 583.204 421.783 582.97C421.582 582.732 421.431 582.448 421.328 582.116C421.225 581.785 421.174 581.419 421.174 581.017V576.488H422.546V581.017C422.546 581.526 422.663 581.923 422.896 582.207C423.129 582.487 423.486 582.627 423.967 582.627C424.317 582.627 424.644 582.546 424.947 582.382C425.25 582.214 425.535 581.986 425.801 581.696V576.488H427.166ZM430.436 581.85C430.66 582.144 430.901 582.35 431.157 582.466C431.419 582.583 431.71 582.641 432.032 582.641C432.658 582.641 433.141 582.417 433.481 581.969C433.827 581.517 433.999 580.859 433.999 579.995C433.999 579.543 433.96 579.158 433.88 578.84C433.806 578.518 433.694 578.257 433.544 578.056C433.4 577.851 433.22 577.702 433.005 577.608C432.791 577.51 432.548 577.461 432.277 577.461C431.881 577.461 431.535 577.55 431.241 577.727C430.952 577.905 430.684 578.157 430.436 578.483V581.85ZM430.366 577.552C430.516 577.375 430.674 577.214 430.842 577.069C431.015 576.92 431.199 576.794 431.395 576.691C431.591 576.584 431.799 576.502 432.018 576.446C432.242 576.386 432.48 576.355 432.732 576.355C433.138 576.355 433.505 576.435 433.831 576.593C434.163 576.752 434.445 576.985 434.678 577.293C434.912 577.601 435.091 577.982 435.217 578.434C435.348 578.887 435.413 579.407 435.413 579.995C435.413 580.523 435.341 581.013 435.196 581.465C435.056 581.913 434.853 582.303 434.587 582.634C434.326 582.966 434.004 583.227 433.621 583.418C433.243 583.605 432.816 583.698 432.34 583.698C431.916 583.698 431.552 583.628 431.248 583.488C430.945 583.348 430.674 583.152 430.436 582.9V585.987H429.071V576.488H429.89C430.082 576.488 430.201 576.579 430.247 576.761L430.366 577.552Z" fill="white"/>
<path d="M275.441 479.6H119.835C118.069 479.6 116.638 480.943 116.638 482.6C116.638 484.257 118.069 485.6 119.835 485.6H275.441C277.206 485.6 278.638 484.257 278.638 482.6C278.638 480.943 277.206 479.6 275.441 479.6Z" fill="#8BD8FE"/>
<path d="M223.038 570.2H158.158C156.766 570.2 155.638 571.329 155.638 572.72C155.638 574.112 156.766 575.24 158.158 575.24H223.038C224.429 575.24 225.558 574.112 225.558 572.72C225.558 571.329 224.429 570.2 223.038 570.2Z" fill="#8BD8FE"/>
<path d="M242.43 494.6H119.845C118.074 494.6 116.638 495.943 116.638 497.6C116.638 499.257 118.074 500.6 119.845 500.6H242.43C244.202 500.6 245.638 499.257 245.638 497.6C245.638 495.943 244.202 494.6 242.43 494.6Z" fill="#8BD8FE"/>
<path d="M123.307 578.52C133.911 578.52 142.507 569.924 142.507 559.32C142.507 548.716 133.911 540.12 123.307 540.12C112.704 540.12 104.107 548.716 104.107 559.32C104.107 569.924 112.704 578.52 123.307 578.52Z" fill="#BEDBE9"/>
<path d="M123.308 578.52C129.488 578.52 134.968 575.59 138.478 571.06C135.718 565.46 129.968 561.6 123.308 561.6C116.648 561.6 110.898 565.46 108.138 571.06C111.648 575.59 117.128 578.52 123.308 578.52Z" fill="#00334B"/>
<path d="M123.308 559.32C126.765 559.32 129.568 556.518 129.568 553.06C129.568 549.603 126.765 546.8 123.308 546.8C119.851 546.8 117.048 549.603 117.048 553.06C117.048 556.518 119.851 559.32 123.308 559.32Z" fill="#00334B"/>
<circle cx="126.138" cy="399.1" r="10.5" fill="#00334B"/>
<circle cx="179.842" cy="622.805" r="4.20455" fill="#00334B"/>
<circle cx="193.842" cy="622.805" r="4.20455" fill="white"/>
<circle cx="207.842" cy="622.805" r="4.20455" fill="white"/>
</svg>
